<?xml version="1.0" standalone="no"?>
<!DOCTYPE svg PUBLIC "-//W3C//DTD SVG 20010904//EN"
 "http://www.w3.org/TR/2001/REC-SVG-20010904/DTD/svg10.dtd">
<svg version="1.0" xmlns="http://www.w3.org/2000/svg"
 width="37.000000pt" height="40.000000pt" viewBox="0 0 37.000000 40.000000"
 preserveAspectRatio="xMidYMid meet">

<g transform="translate(0.000000,40.000000) scale(0.100000,-0.100000)"
fill="#000000" stroke="none">
<path d="M222 334 c-29 -44 -40 -70 -34 -76 11 -11 105 119 96 134 -10 16 -19
7 -62 -58z"/>
<path d="M272 304 c-29 -25 -50 -50 -46 -55 7 -11 19 -4 74 44 29 24 40 41 34
47 -6 6 -28 -6 -62 -36z"/>
<path d="M3 189 c19 -146 203 -205 308 -100 36 36 67 111 54 131 -4 6 -80 10
-187 10 l-181 0 6 -41z m327 -21 c-17 -59 -84 -108 -147 -108 -46 0 -107 37
-131 79 -12 21 -22 44 -22 50 0 8 48 11 154 11 l155 0 -9 -32z"/>
</g>
</svg>
